<?xml version="1.0" encoding="utf-8"?>
<svg version="1.1" xmlns:xlink="http://www.w3.org/1999/xlink" width="22px" height="22px" xmlns="http://www.w3.org/2000/svg">
  <g transform="matrix(1 0 0 1 -10 498 )">
    <path d="M 8.69505962521295 17.3962053571429  C 8.77001703577513 17.4698660714286  8.80749574105622 17.5639880952381  8.80749574105622 17.6785714285714  C 8.80749574105622 17.7767857142857  8.76585273518834 17.875  8.68256672345258 17.9732142857143  L 4.69733106189665 21.8895089285714  C 4.61404505016089 21.9631696428571  4.51826613666477 22  4.40999432140829 22  C 4.31005110732538 22  4.21427219382926 21.9631696428571  4.12265758091993 21.8895089285714  L 0.124929017603634 17.9609375  C 0 17.8299851190476  -0.0291501041075147 17.686755952381  0.0374787052810903 17.53125  C 0.104107514669695 17.3675595238095  0.22903653227333 17.2857142857143  0.412265758091993 17.2857142857143  L 3 17.2857142857143  L 3 0.392857142857144  C 2.81090289608177 0.278273809523807  2.84838160136286 0.184151785714285  2.92333901192504 0.110491071428571  C 2.99829642248722 0.0368303571428561  3.09407533598334 0  3.2106757524134 0  L 5.60931289040318 0  C 5.72591330683324 0  5.82169222032936 0.0368303571428561  5.89664963089154 0.110491071428571  C 5.97160704145372 0.184151785714285  6.00908574673481 0.278273809523807  6 0.392857142857144  L 6 17.2857142857143  L 8.40772288472459 17.2857142857143  C 8.52432330115465 17.2857142857143  8.62010221465077 17.3225446428571  8.69505962521295 17.3962053571429  Z M 21.8875638841567 18.9676339285714  C 21.9625212947189 19.0412946428571  22 19.1354166666667  22 19.25  L 22 21.6071428571429  C 22 21.7217261904762  21.9625212947189 21.8158482142857  21.8875638841567 21.8895089285714  C 21.8126064735945 21.9631696428571  21.7168275600984 22  21.6002271436684 22  L 11.206132879046 22  C 11.0895324626159 22  10.9937535491198 21.9631696428571  10.9187961385576 21.8895089285714  C 10.8438387279955 21.8158482142857  10.8063600227144 21.7217261904762  10.8063600227144 21.6071428571429  L 10.8063600227144 19.25  C 10.8063600227144 19.1354166666667  10.8438387279955 19.0412946428571  10.9187961385576 18.9676339285714  C 10.9937535491198 18.8939732142857  11.0895324626159 18.8571428571429  11.206132879046 18.8571428571429  L 21.6002271436684 18.8571428571429  C 21.7168275600984 18.8571428571429  21.8126064735945 18.8939732142857  21.8875638841567 18.9676339285714  Z M 19.4889267461669 12.6819196428571  C 19.5638841567291 12.7555803571429  19.6013628620102 12.8497023809524  19.6013628620102 12.9642857142857  L 19.6013628620102 15.3214285714286  C 19.6013628620102 15.4360119047619  19.5638841567291 15.5301339285714  19.4889267461669 15.6037946428571  C 19.4139693356048 15.6774553571429  19.3181904221086 15.7142857142857  19.2015900056786 15.7142857142857  L 11.206132879046 15.7142857142857  C 11.0895324626159 15.7142857142857  10.9937535491198 15.6774553571429  10.9187961385576 15.6037946428571  C 10.8438387279955 15.5301339285714  10.8063600227144 15.4360119047619  10.8063600227144 15.3214285714286  L 10.8063600227144 12.9642857142857  C 10.8063600227144 12.8497023809524  10.8438387279955 12.7555803571429  10.9187961385576 12.6819196428571  C 10.9937535491198 12.6082589285714  11.0895324626159 12.5714285714286  11.206132879046 12.5714285714286  L 19.2015900056786 12.5714285714286  C 19.3181904221086 12.5714285714286  19.4139693356048 12.6082589285714  19.4889267461669 12.6819196428571  Z M 17.0902896081772 6.39620535714286  C 17.1652470187394 6.46986607142857  17.2027257240204 6.56398809523809  17.2027257240204 6.67857142857143  L 17.2027257240204 9.03571428571428  C 17.2027257240204 9.15029761904762  17.1652470187394 9.24441964285714  17.0902896081772 9.31808035714286  C 17.015332197615 9.39174107142857  16.9195532841189 9.42857142857143  16.8029528676888 9.42857142857143  L 11.206132879046 9.42857142857143  C 11.0895324626159 9.42857142857143  10.9937535491198 9.39174107142857  10.9187961385576 9.31808035714286  C 10.8438387279955 9.24441964285714  10.8063600227144 9.15029761904762  10.8063600227144 9.03571428571428  L 10.8063600227144 6.67857142857143  C 10.8063600227144 6.56398809523809  10.8438387279955 6.46986607142857  10.9187961385576 6.39620535714286  C 10.9937535491198 6.32254464285714  11.0895324626159 6.28571428571429  11.206132879046 6.28571428571429  L 16.8029528676888 6.28571428571429  C 16.9195532841189 6.28571428571429  17.015332197615 6.32254464285714  17.0902896081772 6.39620535714286  Z M 14.6916524701874 0.110491071428571  C 14.7666098807496 0.184151785714285  14.8040885860307 0.278273809523807  14.8040885860307 0.392857142857144  L 14.8040885860307 2.75  C 14.8040885860307 2.86458333333333  14.7666098807496 2.95870535714286  14.6916524701874 3.03236607142857  C 14.6166950596252 3.10602678571429  14.5209161461291 3.14285714285714  14.404315729699 3.14285714285714  L 11.206132879046 3.14285714285714  C 11.0895324626159 3.14285714285714  10.9937535491198 3.10602678571429  10.9187961385576 3.03236607142857  C 10.8438387279955 2.95870535714286  10.8063600227144 2.86458333333333  10.8063600227144 2.75  L 10.8063600227144 0.392857142857144  C 10.8063600227144 0.278273809523807  10.8438387279955 0.184151785714285  10.9187961385576 0.110491071428571  C 10.9937535491198 0.0368303571428561  11.0895324626159 0  11.206132879046 0  L 14.404315729699 0  C 14.5209161461291 0  14.6166950596252 0.0368303571428561  14.6916524701874 0.110491071428571  Z " fill-rule="nonzero" fill="#ffffff" stroke="none" transform="matrix(1 0 0 1 10 -498 )" />
  </g>
</svg>