<?xml version="1.0" encoding="utf-8"?>
<svg version="1.1" xmlns:xlink="http://www.w3.org/1999/xlink" width="22px" height="22px" xmlns="http://www.w3.org/2000/svg">
  <g transform="matrix(1 0 0 1 -8 -8 )">
    <path d="M 20.971671388102 0  C 21.4079320113314 0  21.7143531633617 0.203125000000001  21.8909348441926 0.609375  C 22.0675165250236 1.03645833333333  21.994806421152 1.40104166666666  21.6728045325779 1.703125  L 14 9.40625  L 14 21  C 13.9915014164306 21.4375  13.7889518413598 21.7447916666667  13.3838526912181 21.921875  C 13.2488196411709 21.9739583333333  13.1189801699717 22  12.9943342776204 22  C 12.71388101983 22  12.4801699716714 21.9010416666667  12.2932011331445 21.703125  L 8.30453257790368 17.703125  C 8.10717658168083 17.5052083333333  8.00849858356941 17.2708333333333  8.00849858356941 17  L 8.00849858356941 9.40625  L 0.327195467422096 1.703125  C 0.00519357884796978 1.40104166666666  -0.0675165250236072 1.03645833333333  0.109065155807365 0.609375  C 0.285646836638338 0.203125000000001  0.592067988668555 0  1.02832861189802 0  L 20.971671388102 0  Z " fill-rule="nonzero" fill="#ffffff" stroke="none" transform="matrix(1 0 0 1 8 8 )" />
  </g>
</svg>